<svg id="Layer_1" viewBox="0 0 24 24" xmlns="http://www.w3.org/2000/svg" data-name="Layer 1"><path d="m16 12c0 .552-.448 1-1 1s-1-.448-1-1 .448-1 1-1 1 .448 1 1zm-6 0c0 .552.448 1 1 1s1-.448 1-1-.448-1-1-1-1 .448-1 1zm9-1c-.552 0-1 .448-1 1s.448 1 1 1 1-.448 1-1-.448-1-1-1zm4 0c-.552 0-1 .448-1 1s.448 1 1 1 1-.448 1-1-.448-1-1-1zm-10.366-7.84-7.165 7.708c-.625.625-.625 1.641-.013 2.253l7.177 7.721.732-.682-7.19-7.733c-.235-.235-.235-.617.013-.865l7.178-7.722-.732-.681zm-11.448 8.404 9.677-10.22-.727-.688-9.667 10.211c-.625.625-.625 1.641-.01 2.256l9.677 10.221.727-.688-9.687-10.23c-.235-.235-.235-.617.01-.861z"/></svg>