<svg id="Layer_1" viewBox="0 0 24 24" xmlns="http://www.w3.org/2000/svg" data-name="Layer 1"><path d="m10 12c0 .552-.448 1-1 1s-1-.448-1-1 .448-1 1-1 1 .448 1 1zm4 0c0-.552-.448-1-1-1s-1 .448-1 1 .448 1 1 1 1-.448 1-1zm-9-1c-.552 0-1 .448-1 1s.448 1 1 1 1-.448 1-1-.448-1-1-1zm-4 0c-.552 0-1 .448-1 1s.448 1 1 1 1-.448 1-1-.448-1-1-1zm18 1c0-.428-.167-.831-.457-1.12l-7.177-7.72-.732.681 7.189 7.734c.238.235.236.626-.013.865l-7.177 7.72.732.682 7.164-7.708c.303-.302.47-.705.47-1.133zm4.54-1.123-9.677-10.221-.727.688 9.687 10.23c.237.232.236.626-.01.861l-9.677 10.221.727.688 9.667-10.211c.619-.587.621-1.671.01-2.256z"/></svg>